<svg width="31" height="23" viewBox="0 0 31 23" fill="none" xmlns="http://www.w3.org/2000/svg">
<path fill-rule="evenodd" clip-rule="evenodd" d="M1.42079 11.1968L5.74394 15.2203C6.03065 15.4871 6.44675 15.562 6.80851 15.4119L30.2419 5.6872C31.158 5.30702 31.0213 3.96872 30.0473 3.78155L26.5629 3.11198C26.3713 3.07517 26.1731 3.0952 25.9927 3.16963L20.1931 5.56285C19.9702 5.65485 19.7215 5.66318 19.4929 5.58632L5.7569 0.967525C5.52831 0.890663 5.27965 0.898995 5.05673 0.990987L3.85807 1.48562C3.0459 1.82076 3.02971 2.96524 3.83207 3.32323L12.1739 7.04513C12.9763 7.40312 12.9601 8.5476 12.1479 8.88274L7.34374 10.8652C7.06666 10.9795 6.75289 10.9636 6.48886 10.8216L3.26795 9.09049C2.93268 8.91028 2.52417 8.93605 2.21419 9.15694L1.52173 9.6504C1.00624 10.0177 0.957425 10.7656 1.42079 11.1968ZM16 19H0V23H16V19Z" fill="#56CCF2"/>
</svg>
