<svg width="68" height="24" viewBox="0 0 68 24" fill="none" xmlns="http://www.w3.org/2000/svg">
<path d="M14.875 18.3125H6.65625L5.09375 23H0.109375L8.57812 0.25H12.9219L21.4375 23H16.4531L14.875 18.3125ZM7.92188 14.5156H13.6094L10.75 6L7.92188 14.5156ZM31.0469 23.3125C28.5677 23.3125 26.5469 22.5521 24.9844 21.0312C23.4323 19.5104 22.6562 17.4844 22.6562 14.9531V14.5156C22.6562 12.8177 22.9844 11.3021 23.6406 9.96875C24.2969 8.625 25.224 7.59375 26.4219 6.875C27.6302 6.14583 29.0052 5.78125 30.5469 5.78125C32.8594 5.78125 34.6771 6.51042 36 7.96875C37.3333 9.42708 38 11.4948 38 14.1719V16.0156H27.2344C27.3802 17.1198 27.8177 18.0052 28.5469 18.6719C29.2865 19.3385 30.2188 19.6719 31.3438 19.6719C33.0833 19.6719 34.4427 19.0417 35.4219 17.7812L37.6406 20.2656C36.9635 21.224 36.0469 21.974 34.8906 22.5156C33.7344 23.0469 32.4531 23.3125 31.0469 23.3125ZM30.5312 9.4375C29.6354 9.4375 28.9062 9.73958 28.3438 10.3438C27.7917 10.9479 27.4375 11.8125 27.2812 12.9375H33.5625V12.5781C33.5417 11.5781 33.2708 10.8073 32.75 10.2656C32.2292 9.71354 31.4896 9.4375 30.5312 9.4375ZM50.0781 10.3281C49.4635 10.2448 48.9219 10.2031 48.4531 10.2031C46.7448 10.2031 45.625 10.7812 45.0938 11.9375V23H40.5781V6.09375H44.8438L44.9688 8.10938C45.875 6.55729 47.1302 5.78125 48.7344 5.78125C49.2344 5.78125 49.7031 5.84896 50.1406 5.98438L50.0781 10.3281ZM51 14.3906C51 12.7135 51.3229 11.2188 51.9688 9.90625C52.6146 8.59375 53.5417 7.57812 54.75 6.85938C55.9688 6.14062 57.3802 5.78125 58.9844 5.78125C61.2656 5.78125 63.125 6.47917 64.5625 7.875C66.0104 9.27083 66.8177 11.1667 66.9844 13.5625L67.0156 14.7188C67.0156 17.3125 66.2917 19.3958 64.8438 20.9688C63.3958 22.5312 61.4531 23.3125 59.0156 23.3125C56.5781 23.3125 54.6302 22.5312 53.1719 20.9688C51.724 19.4062 51 17.2812 51 14.5938V14.3906ZM55.5156 14.7188C55.5156 16.3229 55.8177 17.5521 56.4219 18.4062C57.026 19.25 57.8906 19.6719 59.0156 19.6719C60.1094 19.6719 60.9635 19.2552 61.5781 18.4219C62.1927 17.5781 62.5 16.2344 62.5 14.3906C62.5 12.8177 62.1927 11.599 61.5781 10.7344C60.9635 9.86979 60.099 9.4375 58.9844 9.4375C57.8802 9.4375 57.026 9.86979 56.4219 10.7344C55.8177 11.5885 55.5156 12.9167 55.5156 14.7188Z" fill="#56CCF2"/>
</svg>
